<svg xmlns="http://www.w3.org/2000/svg" viewBox="0 0 372 372"><path d="M0 0h372v372H0"/><path d="M6 6h360v360H6zm180 0l180 180-180 180L6 186zM96 96h180v180H96zM6 6l90 90m180 0l90-90M6 366l90-90m180 0l90 90" fill="#fff" stroke="#000" stroke-width="2"/><path d="M36 90l6-6 6 6-12 12 6 6 6-6M24 78l6-6 6 6-6 6m18-6l6-6 6 6-6 6m-30 30l6-6 6 6-6 6m18-6l6-6 6 6-6 6m36-84l6-6 6 6-6 6M78 24l6-6 6 6-6 6m18-6l6-6 6 6-6 6M78 48l6-6 6 6-12 12 6 6 6-6m12-12l6-6 6 6-12 12 6 6 6-6m66 18l6-6 6 6-6 6m-18-42l6-6 6 6-12 12 12 12-6 6-6-6 12-12m12-12l6-6 6 6-12 12 12 12-6 6-6-6 12-12m66-18l6-6 6 6-12 12 6 6 6-6m-24-24l6-6 6 6-6 6m18-6l6-6 6 6-6 6m-30 30l6-6 6 6-6 6m18-6l6-6 6 6-6 6m36 12l6-6 6 6-12 12 6 6 6-6m-12 24l6-6 6 6-6 6m-18-18l6-6 6 6-6 6m18-6l6-6 6 6-6 6M54 192l6-6 6 6-12 12 6 6 6-6m-24-36l6-6 6 6-12 12 6 6 6-6m12-12l6-6 6 6-12 12 6 6 6-6m48-42l6-6 6 6-6 6m-18-30l6-6 6 6-12 12 6 6 6-6m12-12l6-6 6 6-12 12 6 6 6-6m-36 24l6-6 6 6-6 6m18-6l6-6 6 6-6 6m36 78l6-6 6 6-6 6m-6 18l6-6 6 6-6 6m-18-42l6-6 6 6-6 6m18-6l6-6 6 6-6 6m-30 18l6-6 6 6-6 6m18-6l6-6 6 6-6 6m36-126l6-6 6 6-12 12 12 12-6 6-6-6 12-12m-24-24l6-6 6 6-6 6m18-6l6-6 6 6-6 6m54 48l6-6 6 6-6 6m-6 18l6-6 6 6-12 12 6 6 6-6m-24-24l6-6 6 6-6 6m18-6l6-6 6 6-6 6M36 270l6-6 6 6-6 6m-6 18l6-6 6 6-6 6m-18-42l6-6 6 6-6 6m18-6l6-6 6 6-6 6m-30 18l6-6 6 6-6 6m18-6l6-6 6 6-6 6m36 48l6-6 6 6-6 6m-18-30l6-6 6 6-12 12 6 6 6-6m12-12l6-6 6 6-12 12 6 6 6-6m-36 24l6-6 6 6-6 6m18-6l6-6 6 6-6 6m72-36l6-6 6 6-12 12 6 6 6-6m-24-36l6-6 6 6-12 12 6 6 6-6m12-12l6-6 6 6-12 12 6 6 6-6m54 6l6-6 6 6-12 12 12 12-12 12 6 6 6-6-12-12 12-12m12-12l6-6 6 6-12 12 12 12-12 12 6 6 6-6-12-12 12-12m30-54l6-6 6 6-6 6m-18-18l6-6 6 6-6 6m18-6l6-6 6 6-6 6m-30 18l6-6 6 6-12 12 6 6 6-6m12-12l6-6 6 6-12 12 6 6 6-6"/></svg>