<svg xmlns="http://www.w3.org/2000/svg" viewBox="0 0 372 372"><path d="M0 0h372v372H0"/><path d="M6 6h360v360H6zm180 0l180 180-180 180L6 186zM96 96h180v180H96zM6 6l90 90m180 0l90-90M6 366l90-90m180 0l90 90" fill="#fff" stroke="#000" stroke-width="2"/><path d="M24 90l6-6-6-6 6-6a17 17 0 0 0 24 0l6 6-6 6a17 17 0 0 0-24 0 17 17 0 0 0 24 0l6 6-6 6a17 17 0 0 0-24 0m48-72l6-6a17 17 0 0 0 24 0l6 6-6 6a17 17 0 0 0-24 0m-6 30l6-6-6-6 6-6a17 17 0 0 0 24 0l6 6-6 6a17 17 0 0 0-24 0 17 17 0 0 0 24 0l6 6-6 6a17 17 0 0 0-24 0m84 12l6-6-6-6 6-6-6-6 6-6-6-6 6-6a17 17 0 0 0 24 0l6 6-6 6a17 17 0 0 0-24 0 17 17 0 0 0 24 0l6 6-6 6a17 17 0 0 0-24 0 17 17 0 0 0 24 0l6 6-6 6a17 17 0 0 0-24 0 17 17 0 0 0 24 0l6 6-6 6a17 17 0 0 0-24 0m84-24l6-6-6-6 6-6-6-6 6-6a17 17 0 0 0 24 0l6 6-6 6a17 17 0 0 0-24 0 17 17 0 0 0 24 0l6 6-6 6a17 17 0 0 0-24 0 17 17 0 0 0 24 0l6 6-6 6a17 17 0 0 0-24 0m48 48l6-6-6-6 6-6a17 17 0 0 0 24 0l6 6-6 6a17 17 0 0 0-24 0 17 17 0 0 0 24 0l6 6-6 6a17 17 0 0 0-24 0m-204-6l6-6a17 17 0 0 0 24 0l6 6-6 6a17 17 0 0 0-24 0m102 30l6-6-6-6 6-6-6-6 6-6a17 17 0 0 0 24 0l6 6-6 6a17 17 0 0 0-24 0 17 17 0 0 0 24 0l6 6-6 6a17 17 0 0 0-24 0 17 17 0 0 0 24 0l6 6-6 6a17 17 0 0 0-24 0M24 258l6-6a17 17 0 0 0 24 0l6 6-6 6a17 17 0 0 0-24 0m48 84l6-6a17 17 0 0 0 24 0l6 6-6 6a17 17 0 0 0-24 0m84-24l6-6a17 17 0 0 0 24 0l6 6-6 6a17 17 0 0 0-24 0m84-12l6-6a17 17 0 0 0 24 0l6 6-6 6a17 17 0 0 0-24 0"/><path d="M36 102l6-6 6 6-12 12 6 6 6-6m42-78l6-6 6 6-6 6m174-18l6-6 6 6-6 6m48 48l6-6 6 6-12 12 6 6 6-6M54 168l6-6 6 6-12 12 12 12-12 12 6 6 6-6-12-12 12-12m60-54l6-6 6 6-12 12 12 12-6 6-6-6 12-12m42 84l6-6 6 6-12 12 12 12-12 12 6 6 6-6-12-12 12-12m42-120l6-6 6 6-6 6m66 48l6-6 6 6-12 12 12 12-12 12 6 6 6-6-12-12 12-12M36 270l6-6 6 6-12 12 12 12-6 6-6-6 12-12m42 30l6-6 6 6-12 12 12 12-6 6-6-6 12-12m78-30l6-6 6 6-12 12 12 12-6 6-6-6 12-12m78 6l6-6 6 6-6 6m-6 18l6-6 6 6-12 12 6 6 6-6m42-90l6-6 6 6-12 12 12 12-12 12 6 6 6-6-12-12 12-12" fill="#dc143c"/></svg>