<svg xmlns="http://www.w3.org/2000/svg" viewBox="0 0 372 372"><path d="M0 0h372v372H0"/><path d="M6 6h360v360H6zm180 0l180 180-180 180L6 186zM96 96h180v180H96zM6 6l90 90m180 0l90-90M6 366l90-90m180 0l90 90" fill="#fff" stroke="#000" stroke-width="2"/><path d="M24 114l6-6-6-6 6-6-6-6 6-6a17 17 0 0 0 24 0l6 6-6 6a17 17 0 0 0-24 0 17 17 0 0 0 24 0l6 6-6 6a17 17 0 0 0-24 0 17 17 0 0 0 24 0l6 6-6 6a17 17 0 0 0-24 0m48-84l6-6a17 17 0 0 0 24 0l6 6-6 6a17 17 0 0 0-24 0m-6 18l6-6a17 17 0 0 0 24 0l6 6-6 6a17 17 0 0 0-24 0m84 12l6-6-6-6 6-6-6-6 6-6a17 17 0 0 0 24 0l6 6-6 6a17 17 0 0 0-24 0 17 17 0 0 0 24 0l6 6-6 6a17 17 0 0 0-24 0 17 17 0 0 0 24 0l6 6-6 6a17 17 0 0 0-24 0m84-36l6-6-6-6 6-6a17 17 0 0 0 24 0l6 6-6 6a17 17 0 0 0-24 0 17 17 0 0 0 24 0l6 6-6 6a17 17 0 0 0-24 0m48 24l6-6a17 17 0 0 0 24 0l6 6-6 6a17 17 0 0 0-24 0m-6 30l6-6-6-6 6-6a17 17 0 0 0 24 0l6 6-6 6a17 17 0 0 0-24 0 17 17 0 0 0 24 0l6 6-6 6a17 17 0 0 0-24 0M42 168l6-6a17 17 0 0 0 24 0l6 6-6 6a17 17 0 0 0-24 0m-6 30l6-6a17 17 0 0 0 24 0l6 6-6 6a17 17 0 0 0-24 0m66-84l6-6-6-6 6-6a17 17 0 0 0 24 0l6 6-6 6a17 17 0 0 0-24 0 17 17 0 0 0 24 0l6 6-6 6a17 17 0 0 0-24 0m-6 18l6-6a17 17 0 0 0 24 0l6 6-6 6a17 17 0 0 0-24 0m48 78l6-6-6-6 6-6a17 17 0 0 0 24 0l6 6-6 6a17 17 0 0 0-24 0 17 17 0 0 0 24 0l6 6-6 6a17 17 0 0 0-24 0m48-102l6-6-6-6 6-6-6-6 6-6a17 17 0 0 0 24 0l6 6-6 6a17 17 0 0 0-24 0 17 17 0 0 0 24 0l6 6-6 6a17 17 0 0 0-24 0 17 17 0 0 0 24 0l6 6-6 6a17 17 0 0 0-24 0m66 60l6-6-6-6 6-6a17 17 0 0 0 24 0l6 6-6 6a17 17 0 0 0-24 0 17 17 0 0 0 24 0l6 6-6 6a17 17 0 0 0-24 0M78 348l6-6-6-6 6-6-6-6 6-6a17 17 0 0 0 24 0l6 6-6 6a17 17 0 0 0-24 0 17 17 0 0 0 24 0l6 6-6 6a17 17 0 0 0-24 0 17 17 0 0 0 24 0l6 6-6 6a17 17 0 0 0-24 0m84-24l6-6-6-6 6-6-6-6 6-6-6-6 6-6a17 17 0 0 0 24 0l6 6-6 6a17 17 0 0 0-24 0 17 17 0 0 0 24 0l6 6-6 6a17 17 0 0 0-24 0 17 17 0 0 0 24 0l6 6-6 6a17 17 0 0 0-24 0 17 17 0 0 0 24 0l6 6-6 6a17 17 0 0 0-24 0m84-24l6-6a17 17 0 0 0 24 0l6 6-6 6a17 17 0 0 0-24 0m-6 30l6-6a17 17 0 0 0 24 0l6 6-6 6a17 17 0 0 0-24 0m48-60l6-6-6-6 6-6a17 17 0 0 0 24 0l6 6-6 6a17 17 0 0 0-24 0 17 17 0 0 0 24 0l6 6-6 6a17 17 0 0 0-24 0"/><path d="M36 78l6-6 6 6-6 6m48-60l6-6 6 6-6 6m-6 18l6-6 6 6-6 6m84-12l6-6 6 6-6 6m84-24l6-6 6 6-6 6m-6 30l6-6 6 6-6 6m48 24l6-6 6 6-6 6M54 180l6-6 6 6-12 12 6 6 6-6m60-54l6-6 6 6-6 6m48 102l6-6 6 6-12 12 6 6 6-6m42-108l6-6 6 6-6 6m66 12l6-6 6 6-12 12 6 6 6-6M36 258l6-6 6 6-12 12 12 12-12 12 6 6 6-6-12-12 12-12m42 42l6-6 6 6-6 6m174 6l6-6 6 6-12 12 6 6 6-6m42-78l6-6 6 6-12 12 6 6 6-6" fill="#dc143c"/></svg>