<svg xmlns="http://www.w3.org/2000/svg" viewBox="0 0 492 300"><style>use{fill:#fd4}use:first-child{fill:#f77}use:nth-child(3){fill:#7ae}use:last-child{fill:#ac5}</style><defs><g id="x"><circle cx="11" cy="6" r="4"/><circle cx="25" cy="6" r="4"/></g><g id="0"><use href="#x"/><use href="#x" y="12"/><use href="#x" y="24"/><use href="#x" y="36"/></g><g id="1"><use href="#y"/><use href="#x" y="12"/><use href="#x" y="24"/><use href="#x" y="36"/></g><g id="2"><use href="#x"/><use href="#y" y="12"/><use href="#x" y="24"/><use href="#x" y="36"/></g><g id="3"><use href="#y"/><use href="#y" y="12"/><use href="#x" y="24"/><use href="#x" y="36"/></g><g id="4"><use href="#x"/><use href="#x" y="12"/><use href="#y" y="24"/><use href="#x" y="36"/></g><g id="5"><use href="#y"/><use href="#x" y="12"/><use href="#y" y="24"/><use href="#x" y="36"/></g><g id="6"><use href="#x"/><use href="#y" y="12"/><use href="#y" y="24"/><use href="#x" y="36"/></g><g id="7"><use href="#y"/><use href="#y" y="12"/><use href="#y" y="24"/><use href="#x" y="36"/></g><g id="8"><use href="#x"/><use href="#x" y="12"/><use href="#x" y="24"/><use href="#y" y="36"/></g><g id="9"><use href="#y"/><use href="#x" y="12"/><use href="#x" y="24"/><use href="#y" y="36"/></g><g id="a"><use href="#x"/><use href="#y" y="12"/><use href="#x" y="24"/><use href="#y" y="36"/></g><g id="b"><use href="#y"/><use href="#y" y="12"/><use href="#x" y="24"/><use href="#y" y="36"/></g><g id="c"><use href="#x"/><use href="#x" y="12"/><use href="#y" y="24"/><use href="#y" y="36"/></g><g id="d"><use href="#y"/><use href="#x" y="12"/><use href="#y" y="24"/><use href="#y" y="36"/></g><g id="e"><use href="#x"/><use href="#y" y="12"/><use href="#y" y="24"/><use href="#y" y="36"/></g><g id="f"><use href="#y"/><use href="#y" y="12"/><use href="#y" y="24"/><use href="#y" y="36"/></g><circle id="y" cx="18" cy="6" r="4"/></defs><path d="M0 0h492v300H0"/><path d="M6 6h480v288H6zm0 72h480m0 72H6m0 72h480M66 6v72m60 72V6m60 0v72m60 144V6m60 0v72m60 72V6m60 0v72" fill="#fff" stroke="#000" stroke-width="2"/><use href="#5" x="438" y="18"/><use href="#0" x="378" y="18"/><use href="#c" x="318" y="18"/><use href="#f" x="258" y="18"/><use href="#9" x="198" y="18"/><use href="#8" x="138" y="18"/><use href="#d" x="78" y="18"/><use href="#c" x="18" y="18"/><use href="#5" x="408" y="90"/><use href="#3" x="288" y="90"/><use href="#1" x="168" y="90"/><use href="#1" x="48" y="90"/><use href="#6" x="348" y="162"/><use href="#0" x="108" y="162"/><use href="#6" x="228" y="234"/><use href="#3" x="438" y="234"/></svg>